<svg height="512pt" viewBox="0 0 512 512" width="512pt" xmlns="http://www.w3.org/2000/svg"><path d="m176.8125 351.1875c-4.097656 0-8.195312-1.554688-11.308594-4.691406-6.25-6.25-6.25-16.382813 0-22.632813l158.378906-158.402343c6.25-6.25 16.382813-6.25 22.632813 0 6.253906 6.25 6.253906 16.382812 0 22.636718l-158.378906 158.398438c-3.132813 3.136718-7.230469 4.691406-11.324219 4.691406zm0 0"/><path d="m335.1875 351.1875c-4.09375 0-8.191406-1.554688-11.304688-4.691406l-158.378906-158.378906c-6.25-6.25-6.25-16.382813 0-22.632813 6.25-6.253906 16.382813-6.253906 22.632813 0l158.378906 158.398437c6.253906 6.25 6.253906 16.382813 0 22.632813-3.132813 3.117187-7.230469 4.671875-11.328125 4.671875zm0 0"/><path d="m453.332031 512h-394.664062c-32.363281 0-58.667969-26.304688-58.667969-58.667969v-394.664062c0-32.363281 26.304688-58.667969 58.667969-58.667969h394.664062c32.363281 0 58.667969 26.304688 58.667969 58.667969v394.664062c0 32.363281-26.304688 58.667969-58.667969 58.667969zm-394.664062-480c-14.699219 0-26.667969 11.96875-26.667969 26.667969v394.664062c0 14.699219 11.96875 26.667969 26.667969 26.667969h394.664062c14.699219 0 26.667969-11.96875 26.667969-26.667969v-394.664062c0-14.699219-11.96875-26.667969-26.667969-26.667969zm0 0"/></svg>