<svg height="512pt" viewBox="0 -192 512 512" width="512pt" xmlns="http://www.w3.org/2000/svg"><path d="m256 128c-35.285156 0-64-28.714844-64-64s28.714844-64 64-64 64 28.714844 64 64-28.714844 64-64 64zm0-96c-17.644531 0-32 14.355469-32 32s14.355469 32 32 32 32-14.355469 32-32-14.355469-32-32-32zm0 0"/><path d="m64 128c-35.285156 0-64-28.714844-64-64s28.714844-64 64-64 64 28.714844 64 64-28.714844 64-64 64zm0-96c-17.644531 0-32 14.355469-32 32s14.355469 32 32 32 32-14.355469 32-32-14.355469-32-32-32zm0 0"/><path d="m448 128c-35.285156 0-64-28.714844-64-64s28.714844-64 64-64 64 28.714844 64 64-28.714844 64-64 64zm0-96c-17.644531 0-32 14.355469-32 32s14.355469 32 32 32 32-14.355469 32-32-14.355469-32-32-32zm0 0"/></svg>